<svg width="100" height="100" viewBox="0 0 100 100" fill="none" xmlns="http://www.w3.org/2000/svg">
<rect width="100" height="100" rx="4" fill="#E31C79"/>
<path d="M48.5 61.0937C48.2117 61.0937 47.9284 61.0184 47.6781 60.8753L33.1797 52.5889C33.0537 52.5161 32.9108 52.4779 32.7653 52.4779C32.6199 52.478 32.477 52.5163 32.351 52.5892C32.2251 52.662 32.1206 52.7667 32.048 52.8928C31.9754 53.0188 31.9373 53.1618 31.9375 53.3073V61.0937C31.9373 61.3893 32.0161 61.6796 32.1659 61.9344C32.3157 62.1893 32.531 62.3994 32.7894 62.5429L47.6957 70.8242C47.9417 70.9608 48.2185 71.0326 48.5 71.0326C48.7815 71.0326 49.0583 70.9608 49.3043 70.8242L64.2106 62.5429C64.469 62.3994 64.6843 62.1893 64.8341 61.9344C64.9839 61.6796 65.0627 61.3893 65.0625 61.0937V53.3073C65.0627 53.1618 65.0246 53.0188 64.952 52.8928C64.8794 52.7667 64.7749 52.662 64.649 52.5892C64.523 52.5163 64.3801 52.478 64.2347 52.4779C64.0892 52.4779 63.9463 52.5161 63.8203 52.5889L49.3219 60.8753C49.0716 61.0184 48.7883 61.0937 48.5 61.0937Z" fill="white"/>
<path d="M73.3354 42.7198V42.7084C73.3087 42.4458 73.2195 42.1935 73.0755 41.9724C72.9314 41.7513 72.7366 41.5678 72.5073 41.4372L49.3198 28.1872C49.0695 28.0441 48.7862 27.9689 48.4979 27.9689C48.2096 27.9689 47.9263 28.0441 47.676 28.1872L24.4885 41.4372C24.2351 41.5821 24.0244 41.7914 23.8779 42.0439C23.7315 42.2964 23.6543 42.5831 23.6543 42.875C23.6543 43.1669 23.7315 43.4537 23.8779 43.7062C24.0244 43.9587 24.2351 44.168 24.4885 44.3129L47.676 57.5629C47.9263 57.7059 48.2096 57.7812 48.4979 57.7812C48.7862 57.7812 49.0695 57.7059 49.3198 57.5629L69.7207 45.906C69.7522 45.8878 69.788 45.8782 69.8244 45.8782C69.8608 45.8783 69.8966 45.8879 69.9281 45.9062C69.9595 45.9244 69.9857 45.9507 70.0038 45.9823C70.0219 46.0139 70.0314 46.0497 70.0312 46.0861V61.0472C70.0312 61.9385 70.7165 62.7034 71.6078 62.748C71.8317 62.7588 72.0555 62.724 72.2656 62.6457C72.4757 62.5674 72.6677 62.4473 72.83 62.2927C72.9923 62.138 73.1216 61.952 73.2099 61.7459C73.2982 61.5398 73.3437 61.318 73.3437 61.0938V42.875C73.3435 42.8232 73.3408 42.7713 73.3354 42.7198Z" fill="white"/>
<path d="M55.0967 87.261L51.5075 88.641C50.2132 89.1197 48.7868 89.1197 47.4925 88.641L43.9033 87.261C34.8123 83.7457 27.0036 77.6143 21.4923 69.6638C15.981 61.7133 13.0221 52.3115 13 42.6804V26.0002C19.8893 26.9686 26.916 26.0864 33.3396 23.4465C39.7632 20.8066 45.3461 16.5068 49.5 11C57.1042 21.9201 69.6967 27.0802 86 26.0002V42.6804C85.9779 52.3115 83.019 61.7133 77.5077 69.6638C71.9964 77.6143 64.1877 83.7457 55.0967 87.261Z" stroke="white" stroke-width="2.5" stroke-linecap="round" stroke-linejoin="round"/>
</svg>
